<?xml version="1.0" encoding="UTF-8" standalone="no"?><svg xmlns="http://www.w3.org/2000/svg" xmlns:xlink="http://www.w3.org/1999/xlink" contentScriptType="application/ecmascript" contentStyleType="text/css" height="381px" preserveAspectRatio="none" style="width:403px;height:381px;" version="1.1" viewBox="0 0 403 381" width="403px" zoomAndPan="magnify"><defs><filter height="300%" id="fm0zbllt5th6h" width="300%" x="-1" y="-1"><feGaussianBlur result="blurOut" stdDeviation="2.0"/><feColorMatrix in="blurOut" result="blurOut2" type="matrix" values="0 0 0 0 0 0 0 0 0 0 0 0 0 0 0 0 0 0 .4 0"/><feOffset dx="4.0" dy="4.0" in="blurOut2" result="blurOut3"/><feBlend in="SourceGraphic" in2="blurOut3" mode="normal"/></filter></defs><g><ellipse cx="16" cy="33" fill="#000000" filter="url(#fm0zbllt5th6h)" rx="10" ry="10" style="stroke: none; stroke-width: 1.0;"/><rect fill="#FEFECE" filter="url(#fm0zbllt5th6h)" height="50" rx="12.5" ry="12.5" style="stroke: #A80036; stroke-width: 1.5;" width="84" x="159" y="8"/><line style="stroke: #A80036; stroke-width: 1.5;" x1="159" x2="243" y1="34.4883" y2="34.4883"/><text fill="#000000" font-family="sans-serif" font-size="14" lengthAdjust="spacingAndGlyphs" textLength="64" x="169" y="26.5352">CREATED</text><rect fill="#FEFECE" filter="url(#fm0zbllt5th6h)" height="50" rx="12.5" ry="12.5" style="stroke: #A80036; stroke-width: 1.5;" width="112" x="145" y="165"/><line style="stroke: #A80036; stroke-width: 1.5;" x1="145" x2="257" y1="191.4883" y2="191.4883"/><text fill="#000000" font-family="sans-serif" font-size="14" lengthAdjust="spacingAndGlyphs" textLength="92" x="155" y="183.5352">NODE_READY</text><rect fill="#FEFECE" filter="url(#fm0zbllt5th6h)" height="50" rx="12.5" ry="12.5" style="stroke: #A80036; stroke-width: 1.5;" width="93" x="154.5" y="322"/><line style="stroke: #A80036; stroke-width: 1.5;" x1="154.5" x2="247.5" y1="348.4883" y2="348.4883"/><text fill="#000000" font-family="sans-serif" font-size="14" lengthAdjust="spacingAndGlyphs" textLength="73" x="164.5" y="340.5352">PUBLISHED</text><ellipse cx="386" cy="33" fill="none" filter="url(#fm0zbllt5th6h)" rx="10" ry="10" style="stroke: #000000; stroke-width: 1.0;"/><ellipse cx="386.5" cy="33.5" fill="#000000" rx="6" ry="6" style="stroke: none; stroke-width: 1.0;"/><!--link *start to CREATED--><path d="M26.2099,33 C50.0121,33 110.4342,33 153.562,33 " fill="none" id="*start-CREATED" style="stroke: #A80036; stroke-width: 1.0;"/><polygon fill="#A80036" points="158.7321,33,149.7321,29,153.7321,33,149.7321,37,158.7321,33" style="stroke: #A80036; stroke-width: 1.0;"/><text fill="#000000" font-family="monospace" font-size="13" lengthAdjust="spacingAndGlyphs" textLength="96" x="44.5" y="26.0669">CreateVolume</text><!--link CREATED to NODE_READY--><path d="M161.1043,58.117 C151.4137,66.3545 142.3185,76.4169 137,88 C128.2836,106.9834 128.2836,116.0166 137,135 C141.5706,144.9543 148.9303,153.7854 157.0602,161.3004 " fill="none" id="CREATED-NODE_READY" style="stroke: #A80036; stroke-width: 1.0;"/><polygon fill="#A80036" points="161.1043,164.883,157.0199,155.921,157.3617,161.5675,151.7151,161.9092,161.1043,164.883" style="stroke: #A80036; stroke-width: 1.0;"/><text fill="#000000" font-family="monospace" font-size="13" lengthAdjust="spacingAndGlyphs" textLength="80" x="138" y="101.0669">Controller</text><text fill="#000000" font-family="monospace" font-size="13" lengthAdjust="spacingAndGlyphs" textLength="56" x="150" y="116.1997">Publish</text><text fill="#000000" font-family="monospace" font-size="13" lengthAdjust="spacingAndGlyphs" textLength="48" x="154" y="131.3325">Volume</text><!--link CREATED to NODE_READY--><path d="M215.3717,62.975 C218.5187,70.9294 221.3895,79.6371 223,88 C226.9502,108.512 226.9502,114.488 223,135 C221.0552,145.0986 217.2728,155.7 213.3853,164.8705 " fill="none" id="CREATED-NODE_READY" style="stroke: #A80036; stroke-width: 1.0;"/><polygon fill="#A80036" points="213.3853,58.1295,213.0981,67.9742,215.2819,62.7558,220.5002,64.9396,213.3853,58.1295" style="stroke: #A80036; stroke-width: 1.0;"/><text fill="#000000" font-family="monospace" font-size="13" lengthAdjust="spacingAndGlyphs" textLength="80" x="227" y="101.0669">Controller</text><text fill="#000000" font-family="monospace" font-size="13" lengthAdjust="spacingAndGlyphs" textLength="72" x="231" y="116.1997">Unpublish</text><text fill="#000000" font-family="monospace" font-size="13" lengthAdjust="spacingAndGlyphs" textLength="48" x="243" y="131.3325">Volume</text><!--link NODE_READY to PUBLISHED--><path d="M169.5501,215.2448 C161.2694,223.7278 153.4208,233.8892 149,245 C141.2774,264.409 141.2774,272.591 149,292 C152.7992,301.5483 159.1298,310.3955 166.0906,318.0789 " fill="none" id="NODE_READY-PUBLISHED" style="stroke: #A80036; stroke-width: 1.0;"/><polygon fill="#A80036" points="169.5501,321.7552,166.2953,312.4597,166.1236,318.1139,160.4693,317.9422,169.5501,321.7552" style="stroke: #A80036; stroke-width: 1.0;"/><text fill="#000000" font-family="monospace" font-size="13" lengthAdjust="spacingAndGlyphs" textLength="32" x="162" y="258.0669">Node</text><text fill="#000000" font-family="monospace" font-size="13" lengthAdjust="spacingAndGlyphs" textLength="56" x="150" y="273.1997">Publish</text><text fill="#000000" font-family="monospace" font-size="13" lengthAdjust="spacingAndGlyphs" textLength="48" x="154" y="288.3325">Volume</text><!--link NODE_READY to PUBLISHED--><path d="M207.4607,219.9909 C208.9247,228.0707 210.2638,236.8353 211,245 C212.8759,265.8045 212.8759,271.1955 211,292 C210.111,301.8593 208.3429,312.5933 206.5373,321.9399 " fill="none" id="NODE_READY-PUBLISHED" style="stroke: #A80036; stroke-width: 1.0;"/><polygon fill="#A80036" points="206.5373,215.0601,204.2624,224.6426,207.4577,219.9747,212.1257,223.17,206.5373,215.0601" style="stroke: #A80036; stroke-width: 1.0;"/><text fill="#000000" font-family="monospace" font-size="13" lengthAdjust="spacingAndGlyphs" textLength="32" x="234" y="258.0669">Node</text><text fill="#000000" font-family="monospace" font-size="13" lengthAdjust="spacingAndGlyphs" textLength="72" x="214" y="273.1997">Unpublish</text><text fill="#000000" font-family="monospace" font-size="13" lengthAdjust="spacingAndGlyphs" textLength="48" x="226" y="288.3325">Volume</text><!--link CREATED to *end--><path d="M243.4427,33 C284.0464,33 343.065,33 370.679,33 " fill="none" id="CREATED-*end" style="stroke: #A80036; stroke-width: 1.0;"/><polygon fill="#A80036" points="375.7683,33,366.7683,29,370.7683,33,366.7683,37,375.7683,33" style="stroke: #A80036; stroke-width: 1.0;"/><text fill="#000000" font-family="monospace" font-size="13" lengthAdjust="spacingAndGlyphs" textLength="96" x="261.5" y="26.0669">DeleteVolume</text><!--
@startuml
[*] -r-> CREATED: ""CreateVolume""
CREATED -d-> NODE_READY: ""Controller""\n""Publish""\n""Volume""
NODE_READY -d-> PUBLISHED: ""Node""\n""Publish""\n""Volume""
PUBLISHED -u-> NODE_READY: ""Node""\n""Unpublish""\n""Volume""
NODE_READY -u-> CREATED: ""Controller""\n""Unpublish""\n""Volume""
CREATED -r-> [*]: ""DeleteVolume""
@enduml

PlantUML version 1.2017.13(Wed May 10 11:52:33 CDT 2017)
(GPL source distribution)
Java Runtime: Java(TM) SE Runtime Environment
JVM: Java HotSpot(TM) 64-Bit Server VM
Java Version: 1.8.0_20-b26
Operating System: Mac OS X
OS Version: 10.12.5
Default Encoding: UTF-8
Language: en
Country: US
--></g></svg>