<?xml version="1.0" encoding="UTF-8" standalone="no"?><svg xmlns="http://www.w3.org/2000/svg" xmlns:xlink="http://www.w3.org/1999/xlink" contentScriptType="application/ecmascript" contentStyleType="text/css" height="286px" preserveAspectRatio="none" style="width:425px;height:286px;" version="1.1" viewBox="0 0 425 286" width="425px" zoomAndPan="magnify"><defs><filter height="300%" id="f1a2ohbjyj8bwl" width="300%" x="-1" y="-1"><feGaussianBlur result="blurOut" stdDeviation="2.0"/><feColorMatrix in="blurOut" result="blurOut2" type="matrix" values="0 0 0 0 0 0 0 0 0 0 0 0 0 0 0 0 0 0 .4 0"/><feOffset dx="4.0" dy="4.0" in="blurOut2" result="blurOut3"/><feBlend in="SourceGraphic" in2="blurOut3" mode="normal"/></filter></defs><g><rect fill="#FEFECE" filter="url(#f1a2ohbjyj8bwl)" height="271.4883" rx="12.5" ry="12.5" style="stroke: #A80036; stroke-width: 1.5;" width="412" x="6" y="8"/><rect fill="#FFFFFF" height="239" rx="12.5" ry="12.5" style="stroke: #FFFFFF; stroke-width: 1.0;" width="406" x="9" y="37.4883"/><line style="stroke: #A80036; stroke-width: 1.5;" x1="6" x2="418" y1="34.4883" y2="34.4883"/><text fill="#000000" font-family="sans-serif" font-size="14" lengthAdjust="spacingAndGlyphs" textLength="64" x="180" y="26.5352">CREATED</text><ellipse cx="27" cy="89.4883" fill="#000000" filter="url(#f1a2ohbjyj8bwl)" rx="10" ry="10" style="stroke: none; stroke-width: 1.0;"/><rect fill="#FEFECE" filter="url(#f1a2ohbjyj8bwl)" height="50" rx="12.5" ry="12.5" style="stroke: #A80036; stroke-width: 1.5;" width="112" x="153" y="64.4883"/><line style="stroke: #A80036; stroke-width: 1.5;" x1="153" x2="265" y1="90.9766" y2="90.9766"/><text fill="#000000" font-family="sans-serif" font-size="14" lengthAdjust="spacingAndGlyphs" textLength="92" x="163" y="83.0234">NODE_READY</text><rect fill="#FEFECE" filter="url(#f1a2ohbjyj8bwl)" height="50" rx="12.5" ry="12.5" style="stroke: #A80036; stroke-width: 1.5;" width="93" x="161.5" y="197.4883"/><line style="stroke: #A80036; stroke-width: 1.5;" x1="161.5" x2="254.5" y1="223.9766" y2="223.9766"/><text fill="#000000" font-family="sans-serif" font-size="14" lengthAdjust="spacingAndGlyphs" textLength="73" x="171.5" y="216.0234">PUBLISHED</text><ellipse cx="375" cy="89.4883" fill="none" filter="url(#f1a2ohbjyj8bwl)" rx="10" ry="10" style="stroke: #000000; stroke-width: 1.0;"/><ellipse cx="375.5" cy="89.9883" fill="#000000" rx="6" ry="6" style="stroke: none; stroke-width: 1.0;"/><!--link *start*CREATED to NODE_READY--><path d="M37.0444,89.4883 C57.7979,89.4883 106.8504,89.4883 147.2758,89.4883 " fill="none" id="*start*CREATED-NODE_READY" style="stroke: #A80036; stroke-width: 1.0;"/><polygon fill="#A80036" points="152.6653,89.4883,143.6653,85.4883,147.6653,89.4883,143.6653,93.4883,152.6653,89.4883" style="stroke: #A80036; stroke-width: 1.0;"/><text fill="#000000" font-family="monospace" font-size="13" lengthAdjust="spacingAndGlyphs" textLength="64" x="63" y="52.5552">Validate</text><text fill="#000000" font-family="monospace" font-size="13" lengthAdjust="spacingAndGlyphs" textLength="48" x="71" y="67.688">Volume</text><text fill="#000000" font-family="monospace" font-size="13" lengthAdjust="spacingAndGlyphs" textLength="96" x="47" y="82.8208">Capabilities</text><!--link NODE_READY to PUBLISHED--><path d="M180.0723,114.5589 C175.5486,119.9775 171.5371,126.036 169,132.4883 C161.3561,151.9284 161.4788,160.0004 169,179.4883 C170.8507,184.2836 173.5118,188.8748 176.5871,193.153 " fill="none" id="NODE_READY-PUBLISHED" style="stroke: #A80036; stroke-width: 1.0;"/><polygon fill="#A80036" points="179.7856,197.3228,177.4814,187.7473,176.7423,193.3556,171.1339,192.6165,179.7856,197.3228" style="stroke: #A80036; stroke-width: 1.0;"/><text fill="#000000" font-family="monospace" font-size="13" lengthAdjust="spacingAndGlyphs" textLength="32" x="182" y="145.5552">Node</text><text fill="#000000" font-family="monospace" font-size="13" lengthAdjust="spacingAndGlyphs" textLength="56" x="170" y="160.688">Publish</text><text fill="#000000" font-family="monospace" font-size="13" lengthAdjust="spacingAndGlyphs" textLength="48" x="174" y="175.8208">Volume</text><!--link NODE_READY to PUBLISHED--><path d="M223.3958,119.745 C224.8799,123.9455 226.1523,128.2681 227,132.4883 C231.1135,152.9682 231.3143,159.0498 227,179.4883 C225.7526,185.3976 223.6388,191.4836 221.2637,197.1503 " fill="none" id="NODE_READY-PUBLISHED" style="stroke: #A80036; stroke-width: 1.0;"/><polygon fill="#A80036" points="221.5692,114.8836,220.9905,124.7154,223.3279,119.5641,228.4793,121.9015,221.5692,114.8836" style="stroke: #A80036; stroke-width: 1.0;"/><text fill="#000000" font-family="monospace" font-size="13" lengthAdjust="spacingAndGlyphs" textLength="32" x="252" y="145.5552">Node</text><text fill="#000000" font-family="monospace" font-size="13" lengthAdjust="spacingAndGlyphs" textLength="72" x="232" y="160.688">Unpublish</text><text fill="#000000" font-family="monospace" font-size="13" lengthAdjust="spacingAndGlyphs" textLength="48" x="244" y="175.8208">Volume</text><!--link NODE_READY to *end*CREATED--><path d="M265.2,89.4883 C298.5283,89.4883 338.3148,89.4883 359.658,89.4883 " fill="none" id="NODE_READY-*end*CREATED" style="stroke: #A80036; stroke-width: 1.0;"/><polygon fill="#A80036" points="364.9202,89.4883,355.9202,85.4883,359.9202,89.4883,355.9202,93.4883,364.9202,89.4883" style="stroke: #A80036; stroke-width: 1.0;"/><text fill="#000000" font-family="monospace" font-size="13" lengthAdjust="spacingAndGlyphs" textLength="80" x="275" y="52.5552">Controller</text><text fill="#000000" font-family="monospace" font-size="13" lengthAdjust="spacingAndGlyphs" textLength="72" x="279" y="67.688">Unpublish</text><text fill="#000000" font-family="monospace" font-size="13" lengthAdjust="spacingAndGlyphs" textLength="48" x="291" y="82.8208">Volume</text><!--
@startuml
state CREATED {
    [*] -r-> NODE_READY: ""Validate""\n""Volume""\n""Capabilities""
    NODE_READY -d-> PUBLISHED: ""Node""\n""Publish""\n""Volume""
    PUBLISHED -u-> NODE_READY: ""Node""\n""Unpublish""\n""Volume""
    NODE_READY -r-> [*]: ""Controller""\n""Unpublish""\n""Volume""
}
@enduml

PlantUML version 1.2017.13(Wed May 10 11:52:33 CDT 2017)
(GPL source distribution)
Java Runtime: Java(TM) SE Runtime Environment
JVM: Java HotSpot(TM) 64-Bit Server VM
Java Version: 1.8.0_20-b26
Operating System: Mac OS X
OS Version: 10.12.5
Default Encoding: UTF-8
Language: en
Country: US
--></g></svg>